<?xml version="1.0" encoding="UTF-8" standalone="no"?>
<!-- Created with Inkscape (http://www.inkscape.org/) -->

<svg
   xmlns:dc="http://purl.org/dc/elements/1.1/"
   xmlns:cc="http://creativecommons.org/ns#"
   xmlns:rdf="http://www.w3.org/1999/02/22-rdf-syntax-ns#"
   xmlns:svg="http://www.w3.org/2000/svg"
   xmlns="http://www.w3.org/2000/svg"
   xmlns:sodipodi="http://sodipodi.sourceforge.net/DTD/sodipodi-0.dtd"
   xmlns:inkscape="http://www.inkscape.org/namespaces/inkscape"
   version="1.1"
   id="svg2"
   xml:space="preserve"
   width="819.44"
   height="275.86667"
   viewBox="0 0 819.44 275.86667"
   sodipodi:docname="RVAlogo_v2.svg"
   inkscape:version="0.92.5 (2060ec1f9f, 2020-04-08)"><metadata
     id="metadata8"><rdf:RDF><cc:Work
         rdf:about=""><dc:format>image/svg+xml</dc:format><dc:type
           rdf:resource="http://purl.org/dc/dcmitype/StillImage" /><dc:title /></cc:Work></rdf:RDF></metadata><defs
     id="defs6" /><sodipodi:namedview
     pagecolor="#ffffff"
     bordercolor="#666666"
     borderopacity="1"
     objecttolerance="10"
     gridtolerance="10"
     guidetolerance="10"
     inkscape:pageopacity="0"
     inkscape:pageshadow="2"
     inkscape:window-width="1920"
     inkscape:window-height="1031"
     id="namedview4"
     showgrid="false"
     inkscape:zoom="4.5201601"
     inkscape:cx="304.33364"
     inkscape:cy="184.83432"
     inkscape:window-x="0"
     inkscape:window-y="25"
     inkscape:window-maximized="1"
     inkscape:current-layer="g10" /><g
     id="g10"
     inkscape:groupmode="layer"
     inkscape:label="ink_ext_XXXXXX"
     transform="matrix(1.3333333,0,0,-1.3333333,0,275.86667)"><g
   id="g12"
   transform="matrix(0.08596107,0,0,0.07882894,51.768079,0)"><path
     d="m 4501.77,763.121 h 503.3 L 4752.46,1251.56 Z M 5448.26,0 c -12.26,0 -25.76,4.30859 -40.65,13.1016 -14.87,8.707 -24.91,19.2382 -30.14,31.4882 L 5243.74,301.559 H 4260.33 L 4126.56,44.5898 C 4119.58,32.3398 4109.1,21.8086 4095.11,13.1016 4081.12,4.30859 4067.13,0 4053.14,0 h -553.93 c -35,0 -60.31,12.1797 -76.07,36.6992 -15.68,24.4727 -14.84,51.5625 2.62,81.3008 l 1088.91,1909.08 c 5.29,10.47 15.76,20.07 31.53,28.86 15.68,8.7 28.79,13.1 39.3,13.1 h 464.11 c 12.26,0 25.37,-4.4 39.4,-13.1 13.98,-8.79 24.46,-19.29 31.48,-31.51 L 6135.35,115.391 c 13.9,-29.7894 13.9,-56.4105 0,-80.0199 C 6121.32,11.7695 6096.89,0 6061.89,0 h -613.63"
     style="fill:#231f20;fill-opacity:1;fill-rule:nonzero;stroke:none"
     id="path14"
     inkscape:connector-curvature="0" /><path
     d="M 1113.28,1200.14 H 729.762 v 391.53 h 409.968 c 302.61,0 299.65,-174.82 299.65,-174.82 0,-229.61 -326.1,-216.71 -326.1,-216.71 z M 2353.4,116.93 1872.95,923.898 c 39.34,23.922 77.08,50.582 112.15,80.322 329.44,279.53 221.83,1059.29 -503.55,1060.38 l -55.49,1.11 H 1391 c -11.61,0.02 -23.21,0.02 -34.83,0.02 h -49.86 c -21.09,0 -42.17,0 -63.26,-0.02 -24.43,0 -48.87,0 -73.3,-0.02 h -165.13 c -29.53,0.02 -59.093,0.04 -88.636,0.04 -30.535,0.04 -61.058,0.04 -91.586,0.06 -31.152,0 -62.293,0 -93.46,-0.02 -31.235,0 -62.477,-0.04 -93.719,-0.06 -30.68,-0.02 -61.344,-0.08 -92.024,-0.1 h -88.293 c -27.531,0 -55.054,0.02 -82.57,0.08 -24.996,0.04 -49.98,0.1 -74.973,0.16 -21.91,0.04 -43.808,0.1 -65.722,0.1 -18.563,0 -37.11,0 -55.684,-0.1 -15.457,-0.08 -30.914,-0.22 -46.371,-0.42 -13.223,-0.16 -26.461,-0.42 -39.7031,-0.68 C 74,2064.38 61.2305,2061.5 45.1484,2054.05 29.918,2047.02 15.1719,2034.03 7.51172,2019 2.28906,2008.76 0,1996.51 0,1985.07 0,1984.97 0,80.6016 0,80.6016 0,80.6016 7.87109,0.898438 79.7461,0.898438 H 664.066 c 0,0 74.086,3.300782 74.086,74.062462 l 7.391,669.6991 c 0,0 188.102,-2.922 347.667,-2.801 72,-3.449 114.83,-69.937 114.83,-69.937 L 1542.58,50.3711 c 27.73,-51.019538 72.8,-48.83204 72.8,-48.83204 h 660.38 c 141.96,0 77.64,115.39094 77.64,115.39094"
     style="fill:#231f20;fill-opacity:1;fill-rule:nonzero;stroke:none"
     id="path16"
     inkscape:connector-curvature="0" /><path
     d="m 2190.33,1108.46 c 0,0 62.06,152.02 65.39,281.79 2.41,92.91 -5.81,165.29 -32.14,267.29 -13.29,51.59 -71.57,169.76 -131.98,236.8 -116.48,129.24 -217.95,164.73 -217.95,164.73 0,0 26.63,9.97 41.59,9.97 14.98,0 467.52,0 467.52,0 0,0 40.61,-1.01 69.38,-49.58 l 603.53,-989.85 581.41,979.69 c 34.8,58.39 77.21,58.08 77.21,58.08 h 558.53 c 138.08,0 86.56,-116.1 86.56,-116.1 L 3286.23,69.1992 C 3247.92,0.96875 3209.66,4.30859 3209.66,4.30859 h -356.03 c -38.3,0 -68.03,47.13281 -68.03,47.13281 l -594.2,1055.9486 -1.07,1.07"
     style="fill:#231f20;fill-opacity:1;fill-rule:nonzero;stroke:none"
     id="path18"
     inkscape:connector-curvature="0" /></g><path
   id="text3726"
   transform="matrix(0.75000002,0,0,-0.75000002,0,206.90001)"
   style="font-style:normal;font-weight:normal;font-size:64.53884125px;line-height:1.25;font-family:sans-serif;letter-spacing:0px;word-spacing:0px;fill:#000000;fill-opacity:1;stroke:none;stroke-width:2.15129471"
   d="m 185.28516,1.2363281 c -5.77582,0 -9.99364,1.1043722 -12.65235,3.3125 -2.65871,2.1824519 -3.98828,5.6751679 -3.98828,10.4765629 v 3.003906 h -8.06641 v 5.507812 h 8.06641 V 61.164062 H 177.125 V 23.537109 h 13.89062 V 18.029297 H 177.125 v -3.8125 c 0,-2.670294 0.58091,-4.5198389 1.74219,-5.5468751 1.19183,-1.0270362 3.30074,-1.5410157 6.32617,-1.5410157 h 8.06836 V 1.2363281 Z m 112.8125,0 V 20.382812 c 0.0282,0.09236 0.067,0.176445 0.0879,0.275391 0.0737,0.348907 0.0757,0.709827 0.11328,1.064453 -0.0306,0.251808 -0.0612,0.504065 -0.0918,0.75586 3.7e-4,0.01927 7.5e-4,0.02341 0.002,0.03516 0.0293,0.534413 0.01,1.070549 0.01,1.605469 10e-4,0.476893 0.003,0.952794 0.002,1.429687 -9e-5,0.336306 -3e-5,0.673143 0,1.009766 0.005,0.0041 0.008,0.0051 0.0137,0.0098 0.10955,0.08953 0.0585,0.232684 -0.0137,0.382813 -0.0101,0.104044 -0.007,0.21081 0.002,0.318359 0.21946,0.496311 0.65074,1.07075 0.14453,1.330078 -0.0325,0.08853 -0.0558,0.181212 -0.0977,0.265625 -0.0173,0.03467 -0.0713,0.04976 -0.0781,0.08789 -0.0945,0.535413 0.28826,1.190571 0.0879,1.726563 -0.0605,0.128297 -0.12255,0.255796 -0.18164,0.384765 v 3.037109 c 0.29498,0.583852 0.79128,1.184906 0.74218,1.855469 0.14338,0.41844 0.15688,0.836788 -0.0176,1.242188 -0.0865,0.2014 -0.17404,0.247235 -0.24024,0.486328 -0.0564,0.2038 -0.0754,0.416933 -0.11328,0.625 -0.0273,0.236867 -0.0456,0.475284 -0.082,0.710937 -0.0305,0.197538 -0.0787,0.390014 -0.125,0.583985 0.014,0.179788 0.0222,0.358701 0.0137,0.539062 -0.009,0.21096 -0.0671,0.41532 -0.0723,0.625 0.0173,0.423294 0.0208,0.845932 0.0176,1.269531 -0.005,0.363805 0,0.727957 0,1.091797 -1.3e-4,0.478374 -0.002,0.957187 -0.002,1.435547 -0.0304,0.48732 0.0436,0.982604 0,1.46875 -0.0287,0.319965 -0.0716,0.58359 -0.12109,0.845703 v 1.00586 c 0.0474,8.06e-4 0.0668,0.0037 0.12109,0.0039 0.038,1.07e-4 0,0.0771 0,0.115234 v 0.101563 c 0.0232,0.17256 0,0.43999 0,0.886719 v 0.332031 2.111328 c 1.7e-4,0.186249 -3.2e-4,0.372345 0,0.558594 -6.9e-4,0.315056 5e-4,0.630197 0.002,0.945312 0.46243,0.775479 0.47743,1.676173 0.0371,2.457032 0.0637,0.06838 0.11205,0.13491 0.0605,0.189453 -0.0923,0.098 -0.14053,0.136933 -0.2207,0.21875 v 5.357421 h 8.48046 v -6.470703 c 1.77253,2.567591 4.00214,4.482115 6.69141,5.740235 2.71983,1.232443 5.95989,1.847656 9.71875,1.847656 6.23422,0 11.29077,-2.078785 15.17188,-6.238281 3.91166,-4.159497 5.86914,-9.629765 5.86914,-16.408203 0,-6.778439 -1.95748,-12.246754 -5.86914,-16.40625 -3.88111,-4.159497 -8.93766,-6.240235 -15.17188,-6.240235 -3.75886,0 -6.99892,0.630553 -9.71875,1.888672 -2.68927,1.232444 -4.91888,3.131628 -6.69141,5.699219 V 1.2363281 Z M 98.417969,16.988281 c -4.064464,0 -7.517307,0.641986 -10.359375,1.925781 -2.842069,1.258125 -5.149402,3.197464 -6.921875,5.816407 V 18.029297 H 72.65625 v 43.134765 h 8.480469 V 38.441406 c 0,-4.878422 1.268217,-8.613765 3.804687,-11.207031 2.56703,-2.618942 6.234613,-3.929688 11.001953,-3.929687 1.344635,0 2.567814,0.116573 3.667969,0.347656 1.130712,0.205407 2.169832,0.539787 3.117192,1.001953 L 102.68164,17.375 c -0.85568,-0.12838 -1.63501,-0.218179 -2.33789,-0.269531 -0.702877,-0.07703 -1.345144,-0.117188 -1.925781,-0.117188 z m 32.593751,0 c -7.70109,0 -13.82939,2.080738 -18.38281,6.240235 -4.52287,4.13382 -6.78321,9.730141 -6.78321,16.791015 0,6.829791 2.38305,12.24846 7.15039,16.253907 4.7979,4.005441 11.29238,6.007812 19.48243,6.007812 3.2699,0 6.49364,-0.282786 9.67187,-0.847656 3.17823,-0.56487 6.27926,-1.386456 9.30469,-2.464844 v -6.701172 c -2.99487,1.335147 -6.02019,2.336333 -9.07617,3.003906 -3.02543,0.667574 -6.15714,1.001954 -9.39649,1.001954 -5.59246,0 -9.96366,-1.270586 -13.11133,-3.8125 -3.1171,-2.567596 -4.85789,-6.2915 -5.22461,-11.169922 h 38.7793 v -3.466797 c 0,-6.418976 -2.01688,-11.489885 -6.05078,-15.212891 -4.00334,-3.748682 -9.45675,-5.623047 -16.36328,-5.623047 z m 154.25,0 c -4.06446,0 -7.51731,0.641986 -10.35938,1.925781 -2.84206,1.258125 -5.1494,3.197464 -6.92187,5.816407 V 18.029297 H 259.5 v 43.134765 h 8.48047 V 38.441406 c 0,-4.878422 1.26822,-8.613765 3.80469,-11.207031 2.56703,-2.618942 6.23461,-3.929688 11.00195,-3.929687 1.34463,0 2.56586,0.116573 3.66601,0.347656 1.13077,0.205407 2.16984,0.539787 3.11719,1.001953 L 289.52539,17.375 c -0.85568,-0.12838 -1.63501,-0.218179 -2.33789,-0.269531 -0.70288,-0.07703 -1.34514,-0.117188 -1.92578,-0.117188 z m -85.8125,1.041016 v 26.111328 c 0,5.931134 1.528,10.438423 4.58398,13.519531 3.05599,3.081109 7.53359,4.621094 13.43164,4.621094 3.57551,0 6.70722,-0.628599 9.39649,-1.886719 2.71983,-1.283795 5.10483,-3.234573 7.15234,-5.853515 v 6.623046 h 8.4336 V 18.029297 h -8.4336 v 24.455078 c 0,4.210848 -1.32957,7.537347 -3.98828,9.976563 -2.62815,2.43921 -6.22002,3.658203 -10.77344,3.658203 -3.78942,0 -6.63068,-1.014573 -8.52539,-3.042969 -1.89471,-2.054073 -2.84179,-5.122609 -2.84179,-9.205078 V 18.029297 Z m 98.73828,4.558594 c -0.0109,0.04999 -0.0213,0.09988 -0.0293,0.15039 -0.005,0.03773 0.0192,-0.074 0.0273,-0.111328 0.003,-0.01271 9.5e-4,-0.02608 0.002,-0.03906 z m 22.73828,0.332031 c 4.46174,0 7.95958,1.490345 10.4961,4.46875 2.56702,2.952729 3.85156,7.033885 3.85156,12.246094 0,5.212208 -1.28454,9.308704 -3.85156,12.287109 -2.53652,2.952729 -6.03436,4.427734 -10.4961,4.427734 -4.46174,0 -7.97594,-1.475005 -10.54297,-4.427734 -2.53647,-2.978405 -3.80463,-7.074901 -3.80469,-12.287109 6e-5,-5.212209 1.26822,-9.293365 3.80469,-12.246094 2.56703,-2.978405 6.08123,-4.46875 10.54297,-4.46875 z m -189.82226,0.07813 c 4.15614,0 7.48627,1.154012 9.99218,3.464844 2.53647,2.310831 3.83537,5.406141 3.89649,9.283203 l -30.07031,0.03711 c 0.42783,-4.056793 2.04591,-7.201743 4.85742,-9.435547 2.84207,-2.233803 6.61799,-3.349604 11.32422,-3.349609 z m 167.0996,32.482422 c -0.0226,0.03695 -0.0476,0.07305 -0.0723,0.109375 2.1e-4,0.0019 -2.2e-4,0.002 0,0.0039 0.001,0.01747 0.03,-0.01983 0.0449,-0.0293 0.003,0.04907 0.007,0.09945 0.01,0.148438 0.0195,0.0083 0.0294,-0.118968 0.0176,-0.232422 z" />


<path
   id="path13"
   transform="matrix(0.75000002,0,0,-0.75000002,0,206.90001)"
   style="fill:#000000;stroke-width:1.76984882"
   d="m 260.28711,17.759766 -0.55469,21.5 -0.55469,21.5 -16.31835,0.208984 c -8.97499,0.115043 -20.30088,0.173689 -25.16797,0.130859 -4.86708,-0.04283 -23.98165,-0.03507 -42.47657,0.01758 -34.85462,0.09924 -37.07291,0.08405 -77.49609,-0.517579 -20.042351,-0.298295 -24.699866,0.112338 -26.078125,2.292969 -1.006443,1.592358 -1.688818,43.506382 -1.705078,104.736332 -0.02402,90.46596 0.289199,102.39857 2.753906,104.86328 2.346196,2.3462 8.416645,2.78125 38.810547,2.78125 30.39389,0 36.46436,-0.43505 38.81055,-2.78125 2.34683,-2.34683 2.78125,-8.42672 2.78125,-38.93555 v -36.15625 h 22.21093 c 15.7459,0 23.60216,0.73056 26.99024,2.50977 3.32923,1.74831 10.91322,13.05461 24.99609,37.26757 11.11898,19.1171 21.6192,35.51001 23.33399,36.42774 3.3871,1.81274 80.92433,2.3511 85.5039,0.59375 1.53975,-0.59085 2.79883,-2.82278 2.79883,-4.95899 0,-2.13622 -12.63547,-23.32414 -28.08008,-47.08593 l -28.08203,-43.20313 9.30274,-6.66211 c 5.11672,-3.66401 11.70674,-10.2913 14.64453,-14.72656 14.43366,-21.79086 11.15602,-54.20102 -7.57813,-74.9375 -6.58858,-7.292762 -28.51303,-19.732422 -34.77734,-19.732422 -3.02998,0 -3.33439,-1.859177 -3.68555,-22.566406 z m -108.96484,88.984374 31.41406,0.75391 c 33.47195,0.80355 40.44806,2.31544 47.97851,10.39843 7.36404,7.90437 3.07044,22.05597 -8.33203,27.4668 -3.34531,1.58745 -11.34376,3.56652 -17.77539,4.39649 -13.97488,1.80339 -50.43568,2.1151 -52.10547,0.44531 -0.64894,-0.64894 -1.17968,-10.69299 -1.17968,-22.32031 z" /><path
   style="fill:#000000;stroke-width:1.76984882"
   d="m 391.41215,271.29145 c -5.50011,-5.03915 -69.22405,-109.16476 -69.02679,-112.79057 0.0806,-1.48064 1.54438,-7.86888 3.25296,-14.19609 8.18978,-30.32846 -4.48318,-63.216842 -30.79407,-79.915552 l -7.7999,-4.950355 14.87929,1.074902 c 23.5631,1.702233 30.49323,1.552245 31.23599,-0.676036 0.37706,-1.131184 1.62965,-1.769743 2.78353,-1.419021 1.15388,0.350723 4.1519,1.083391 6.66228,1.628152 3.6474,0.791503 11.64701,11.655364 39.82159,54.07968 19.39151,29.19906 36.05372,52.84839 37.02714,52.55407 0.97342,-0.29432 15.11375,-21.17882 31.42296,-46.41 16.30922,-25.231174 32.02233,-49.2597 34.91805,-53.396722 l 5.26491,-7.521857 h 35.54981 c 35.8551,0 42.39649,0.999046 42.39649,6.475068 0,3.537478 -123.03168,202.143281 -127.82857,206.349251 -2.9382,2.57625 -7.05525,3.09724 -24.4758,3.09724 -19.25137,0 -21.29458,-0.32173 -25.28987,-3.98216 z"
   id="path15"
   inkscape:connector-curvature="0"
   transform="matrix(0.75000002,0,0,-0.75000002,0,206.90001)" /><path
   style="fill:#000000;stroke-width:1.76984882"
   d="m 464.14285,273.36199 c -1.70348,-0.99217 -3.09723,-3.03023 -3.09723,-4.52897 0,-3.42082 123.152,-202.16611 127.88514,-206.383734 3.0067,-2.679221 7.34498,-3.097235 32.14397,-3.097235 20.22737,0 29.51131,0.651373 31.53182,2.212311 3.13343,2.42074 118.14415,200.113988 119.59144,205.567128 1.89987,7.15829 -3.33922,8.14212 -43.35855,8.14212 -43.50839,0 -40.00979,1.31464 -51.08876,-19.19731 l -6.83793,-12.65997 h -57.01776 -57.01776 l -5.70584,10.17663 c -3.13822,5.59715 -7.61758,12.76503 -9.95413,15.92864 l -4.24828,5.75201 -34.86445,-0.0538 c -20.37257,-0.0315 -36.15185,-0.80368 -37.96168,-1.8578 z m 178.68243,-79.05897 c -11.19438,-20.53337 -28.49106,-49.98599 -29.33379,-49.9493 -0.96164,0.0419 -26.59038,45.07423 -28.26148,49.65835 -0.34146,0.93669 11.81635,1.61834 28.86449,1.61834 16.19995,0 29.12881,-0.59732 28.73078,-1.32739 z"
   id="path17"
   inkscape:connector-curvature="0"
   transform="matrix(0.75000002,0,0,-0.75000002,0,206.90001)" /></g></svg>