<?xml version="1.0" encoding="UTF-8" standalone="no"?>
<svg
   xmlns:dc="http://purl.org/dc/elements/1.1/"
   xmlns:cc="http://creativecommons.org/ns#"
   xmlns:rdf="http://www.w3.org/1999/02/22-rdf-syntax-ns#"
   xmlns:svg="http://www.w3.org/2000/svg"
   xmlns="http://www.w3.org/2000/svg"
   xmlns:xlink="http://www.w3.org/1999/xlink"
   xmlns:sodipodi="http://sodipodi.sourceforge.net/DTD/sodipodi-0.dtd"
   xmlns:inkscape="http://www.inkscape.org/namespaces/inkscape"
   viewBox="0 0 492 110"
   version="1.1"
   id="svg15"
   sodipodi:docname="youtubelogo.svg"
   inkscape:version="0.92.5 (2060ec1f9f, 2020-04-08)">
  <metadata
     id="metadata21">
    <rdf:RDF>
      <cc:Work
         rdf:about="">
        <dc:format>image/svg+xml</dc:format>
        <dc:type
           rdf:resource="http://purl.org/dc/dcmitype/StillImage" />
      </cc:Work>
    </rdf:RDF>
  </metadata>
  <defs
     id="defs19" />
  <sodipodi:namedview
     pagecolor="#ffffff"
     bordercolor="#666666"
     borderopacity="1"
     objecttolerance="10"
     gridtolerance="10"
     guidetolerance="10"
     inkscape:pageopacity="0"
     inkscape:pageshadow="2"
     inkscape:window-width="1920"
     inkscape:window-height="1031"
     id="namedview17"
     showgrid="false"
     inkscape:zoom="1.2676183"
     inkscape:cx="74.906267"
     inkscape:cy="52.238916"
     inkscape:window-x="0"
     inkscape:window-y="25"
     inkscape:window-maximized="1"
     inkscape:current-layer="svg15" />
  <path
     d="m 143.12183,23.125 a 16.66,16.66 0 0 0 -11.73,-11.73 C 121.10683,8.59 79.711832,8.59 79.711832,8.59 c 0,0 -41.395,0.085 -51.68,2.89 a 16.66,16.66 0 0 0 -11.73,11.73 c -3.111,18.275 -4.318,46.121 0.085,63.665 a 16.66,16.66 0 0 0 11.73,11.73 c 10.285,2.805 51.68,2.805 51.68,2.805 0,0 41.394998,0 51.679998,-2.805 a 16.66,16.66 0 0 0 11.73,-11.73 c 3.281,-18.3005 4.2925,-46.1295 -0.085,-63.75 z"
     id="path2"
     inkscape:connector-curvature="0"
     style="fill:#ff0000;stroke-width:0.85000002" />
  <path
     d="M 67.23,74.89 101.57,55 67.23,35.11 Z"
     id="path4"
     inkscape:connector-curvature="0"
     style="fill:#ffffff;stroke-width:0.85000002" />
  <g
     id="g11"
     transform="matrix(0.85,0,0,0.85,26.06607,10.429143)"
     style="fill:#282828">
    <path
       d="m 227.9,99.7 c -3.1,-2.1 -5.3,-5.3 -6.6,-9.7 -1.3,-4.4 -1.9,-10.2 -1.9,-17.5 v -9.9 c 0,-7.3 0.7,-13.3 2.2,-17.7 1.5,-4.5 3.8,-7.7 7,-9.7 3.2,-2 7.3,-3.1 12.4,-3.1 5,0 9.1,1 12.1,3.1 3,2.1 5.3,5.3 6.7,9.7 1.4,4.4 2.1,10.3 2.1,17.6 v 9.9 c 0,7.3 -0.7,13.1 -2.1,17.5 -1.4,4.4 -3.6,7.6 -6.7,9.7 -3.1,2 -7.3,3.1 -12.5,3.1 -5.4,0.1 -9.6,-1 -12.7,-3 z M 245.2,89 c 0.9,-2.2 1.3,-5.9 1.3,-10.9 V 56.8 c 0,-4.9 -0.4,-8.5 -1.3,-10.7 -0.9,-2.3 -2.4,-3.4 -4.5,-3.4 -2.1,0 -3.5,1.1 -4.4,3.4 -0.9,2.3 -1.3,5.8 -1.3,10.7 v 21.3 c 0,5 0.4,8.7 1.2,10.9 0.8,2.2 2.3,3.3 4.5,3.3 2.1,0 3.6,-1.1 4.5,-3.3 z M 464.4,72.7 v 3.5 l 0.4,9.9 c 0.3,2.2 0.8,3.8 1.6,4.8 0.8,1 2.1,1.5 3.8,1.5 2.3,0 3.9,-0.9 4.7,-2.7 0.9,-1.8 1.3,-4.8 1.4,-8.9 l 13.3,0.8 c 0.1,0.6 0.1,1.4 0.1,2.4 0,6.3 -1.7,11 -5.2,14.1 -3.5,3.1 -8.3,4.7 -14.6,4.7 -7.6,0 -12.9,-2.4 -15.9,-7.1 -3,-4.7 -4.6,-12.1 -4.6,-22 V 61.6 c 0.34,-17 3.33,-29.45 20.9,-29.5 5.3,0 9.3,1 12.1,2.9 2.8,1.9 4.8,4.9 6,9 1.2,4.1 1.7,9.7 1.7,16.9 v 11.7 h -25.7 z m 2,-28.8 c -0.8,1 -1.3,2.5 -1.6,4.7 -0.3,2.2 -0.4,10 -0.4,10 v 4.9 h 11.2 v -4.9 c 0,4.9 -0.1,-7.7 -0.4,-10 -0.3,-2.3 -0.8,-3.9 -1.6,-4.8 -0.8,-0.9 -2,-1.4 -3.6,-1.4 -1.7,0.1 -2.9,0.6 -3.6,1.5 z M 190.5,71.4 173,8.2 h 15.3 c 0,0 7.15,31.7 9.6,46.6 h 0.4 c 2.78,-15.82 9.8,-46.6 9.8,-46.6 h 15.3 l -17.7,63.1 v 30.3 H 190.6 V 71.4 Z"
       id="path6"
       inkscape:connector-curvature="0" />
    <path
       id="A"
       d="m 311.5,33.4 v 68.3 h -12 l -1.3,-8.4 h -0.3 c -3.3,6.3 -8.2,9.5 -14.7,9.5 -11.77,-0.03 -13.08,-10 -13.2,-18.4 v -51 h 15.4 v 50.1 c 0,3 0.3,5.2 1,6.5 1.42,2.78 5.1,2.07 7.1,0.7 a 8,8 0 0 0 2.7,-3.1 V 33.4 Z"
       inkscape:connector-curvature="0"
       style="fill:#282828" />
    <path
       d="M 353.3,20.6 H 338 v 81.1 H 323 V 20.6 H 307.7 V 8.2 h 45.5 v 12.4 z m 87.9,23.7 C 440.3,40 438.8,36.9 436.7,34.9 434.6,33 431.8,32 428.1,32 a 14.1,14.1 0 0 0 -7.9,2.4 c -2.5,1.6 -4.3,3.7 -5.7,6.3 h -0.1 v -36 h -14.8 v 96.9 h 12.7 l 1.6,-6.5 h 0.3 a 14,14 0 0 0 5.3,5.5 c 2.4,1.3 5,2 7.9,2 5.2,0 9,-2.4 11.5,-7.2 2.4,-4.8 3.7,-12.3 3.7,-22.4 V 62.2 c 0,-7.6 -0.5,-13.6 -1.4,-17.9 z m -14.1,27.9 c 0,5 -0.2,8.9 -0.6,11.7 -0.4,2.8 -1.1,4.8 -2.1,6 -1,1.2 -2.3,1.8 -3.9,1.8 -3.1,-0.1 -4.86,-1.5 -6.1,-3.6 V 49.3 c 0.5,-1.9 1.4,-3.4 2.7,-4.6 2.2,-2.47 5.96,-2.5 7.7,0 0.9,1.2 1.4,3.3 1.8,6.2 0.3,2.9 0.5,7 0.5,12.4 z"
       id="path9"
       inkscape:connector-curvature="0" />
  </g>
  <use
     xlink:href="#A"
     x="78.900002"
     id="use13"
     transform="matrix(0.85,0,0,0.85,31.78107,12.581643)"
     y="0"
     width="100%"
     height="100%" />
  <path
     style="fill:#000000;stroke-width:0.94829929"
     d="M 188.58318,83.092409 V 69.855305 l -7.11224,-25.495922 c -3.91174,-14.022756 -7.11225,-25.775549 -7.11225,-26.117317 0,-0.341768 2.67999,-0.621396 5.95552,-0.621396 h 5.95554 l 3.57994,17.306463 c 1.96897,9.518554 3.81031,18.510496 4.09185,19.982094 0.28156,1.471598 0.76495,2.422602 1.07421,2.113342 0.30926,-0.309261 1.48752,-5.140539 2.61836,-10.736177 1.13083,-5.595637 3.0059,-14.334549 4.16681,-19.419804 l 2.11074,-9.245918 h 6.05633 c 4.43411,0 5.94524,0.317513 5.64156,1.185374 -0.22814,0.651956 -3.62863,12.669987 -7.55664,26.706736 l -7.14184,25.521363 v 12.647685 12.647689 h -6.16394 -6.16395 z"
     id="path23"
     inkscape:connector-curvature="0" />
  <path
     style="fill:#000000;stroke-width:0.94829929"
     d="m 222.74251,93.724051 c -2.08626,-0.993515 -4.51218,-3.056943 -5.39095,-4.585402 -2.66676,-4.638387 -3.92075,-14.874237 -3.37378,-27.539168 0.41962,-9.716595 0.87745,-12.412678 2.73771,-16.121984 3.4267,-6.832743 6.15285,-8.345947 15.03586,-8.345947 8.61321,0 11.3847,1.446994 14.63357,7.640153 1.77791,3.389156 1.96167,5.382788 1.96167,21.282976 0,19.496779 -0.76731,22.709638 -6.37773,26.704604 -4.07582,2.902241 -14.10146,3.405322 -19.22635,0.964768 z m 11.74356,-7.644908 c 1.39802,-1.398019 1.93535,-3.867273 2.47143,-11.35715 0.62873,-8.784239 0.067,-22.906909 -1.07092,-26.923082 -0.70584,-2.491248 -3.75549,-3.825075 -5.99962,-2.624054 -3.1048,1.661639 -4.04145,7.771468 -3.68299,24.024423 0.31913,14.46963 0.41677,15.109776 2.57046,16.853605 2.78722,2.256786 3.47794,2.259961 5.71164,0.02626 z"
     id="path25"
     inkscape:connector-curvature="0" />
  <path
     style="fill:#000000;stroke-width:0.94829929"
     d="m 262.30489,95.58307 c -4.54373,-2.310455 -5.02841,-5.396273 -5.02841,-32.014385 V 38.819143 h 5.68979 5.6898 l 0.0547,20.625511 c 0.0301,11.344031 0.35515,22.332449 0.72245,24.418708 0.57468,3.264269 1.04156,3.836166 3.34826,4.101353 1.582,0.181872 3.42331,-0.364127 4.49319,-1.33235 1.69022,-1.529627 1.81274,-3.200847 1.81274,-24.726863 V 38.819143 h 6.16394 6.16395 v 28.44898 28.448983 h -4.69853 c -4.61895,0 -4.70907,-0.05618 -5.32118,-3.319051 -0.34247,-1.825476 -0.78279,-3.319047 -0.97851,-3.319047 -0.19572,0 -1.77495,1.548505 -3.50941,3.441123 -2.66458,2.907567 -3.87961,3.493948 -7.83622,3.781835 -2.57548,0.187391 -5.62041,-0.136111 -6.76652,-0.718896 z"
     id="path27"
     inkscape:connector-curvature="0" />
  <path
     style="fill:#000000;stroke-width:0.94829929"
     d="m 300.53826,62.010521 -0.24891,-34.375851 -6.40102,-0.280402 -6.40102,-0.280403 v -4.698168 -4.698169 h 18.96599 18.96598 v 4.741497 4.741496 h -6.16394 -6.16395 v 34.612925 34.612929 h -6.15211 -6.15212 z"
     id="path29"
     inkscape:connector-curvature="0" />
  <path
     style="fill:#000000;stroke-width:0.94829929"
     d="m 333.95559,98.319733 c -0.91276,-0.531624 -2.40633,-2.332273 -3.31906,-4.001435 -1.43594,-2.626004 -1.70084,-6.388263 -1.96638,-27.927697 l -0.30688,-24.892858 h 6.23375 6.23376 v 22.2233 c 0,12.222816 0.41617,23.317918 0.92482,24.655783 0.69621,1.831183 1.59755,2.432482 3.64622,2.432482 5.61403,0 5.86024,-1.108745 5.86024,-26.389976 V 41.497743 h 6.16396 6.16394 v 28.498539 28.498534 l -4.97858,-0.286628 c -4.85499,-0.279523 -4.98594,-0.363129 -5.27572,-3.368608 -0.3397,-3.523206 -1.53306,-3.967285 -3.04905,-1.134629 -2.45641,4.589852 -11.82742,7.237889 -16.33102,4.614782 z"
     id="path31"
     inkscape:connector-curvature="0" />
  <path
     style="fill:#000000;stroke-width:0.94829929"
     d="m 383.36789,95.124339 c -1.64929,-1.005667 -3.43422,-2.604326 -3.9665,-3.552578 -1.05082,-1.872044 -0.9054,-2.048418 -2.48801,3.017403 -0.31773,1.017037 -1.80423,1.422453 -5.21565,1.422453 h -4.77126 V 55.234743 14.457872 h 5.6898 5.6898 v 15.283135 15.283136 l 3.79593,-3.429394 c 3.25301,-2.938901 4.44832,-3.429394 8.35727,-3.429394 3.73943,0 5.01058,0.469906 7.05442,2.607823 3.54519,3.708369 4.4503,9.042036 4.47668,26.380264 0.027,17.760388 -1.18391,23.51825 -5.75498,27.364553 -3.54691,2.984531 -8.57843,3.22163 -12.8675,0.606344 z m 4.87096,-9.496925 c 1.76482,-3.41279 2.07789,-31.144239 0.40574,-35.940959 -1.41031,-4.045611 -5.75384,-4.437804 -8.65791,-0.781754 -1.41272,1.778521 -1.64135,4.40403 -1.65953,19.057412 -0.0233,18.76059 0.45856,20.463106 5.79134,20.463106 2.00151,0 3.03725,-0.703288 4.12036,-2.797805 z"
     id="path33"
     inkscape:connector-curvature="0" />
  <path
     style="fill:#000000;stroke-width:0.94829929"
     d="m 417.16813,95.606329 c -4.83706,-3.259691 -6.59468,-7.160608 -7.77642,-17.259234 -1.31352,-11.224693 0.0793,-27.379052 2.75447,-31.94716 2.8964,-4.945892 6.29451,-6.844596 13.01568,-7.272567 12.84232,-0.817738 16.71694,4.036737 17.45505,21.869259 l 0.46121,11.142516 h -11.13603 -11.13602 l 0.34835,7.670782 c 0.28292,6.230024 0.69205,7.922102 2.17826,9.008844 2.48464,1.81682 3.96689,1.683481 6.20891,-0.558537 1.19551,-1.195515 1.89659,-3.160997 1.89659,-5.317104 0,-2.729451 0.30305,-3.304214 1.50001,-2.844898 0.82501,0.316584 3.42292,0.575607 5.77315,0.575607 h 4.27314 l -0.66491,4.030272 c -0.3657,2.21665 -1.35404,5.212858 -2.19632,6.658239 -3.56976,6.125909 -16.59037,8.533186 -22.95512,4.243981 z m 14.08845,-38.096517 c -0.46489,-8.857399 -1.6518,-11.225854 -5.40505,-10.785619 -3.42252,0.401442 -4.81425,3.83036 -4.83066,11.901685 l -0.014,6.87517 h 5.33456 5.33457 z"
     id="path35"
     inkscape:connector-curvature="0" />
</svg>
